<svg width="760" height="446" viewBox="0 0 760 446" fill="none" xmlns="http://www.w3.org/2000/svg">
<path fill-rule="evenodd" clip-rule="evenodd" d="M258.359 333.068H275.04C289.21 333.068 296.295 333.068 300.697 328.82C305.099 324.572 305.099 317.735 305.099 304.062V294.393C305.099 280.719 305.099 273.882 300.697 269.634C298.497 267.511 295.627 266.449 291.537 265.918L276.444 265.386C275.984 265.386 275.516 265.386 275.04 265.386H252.923C249.976 265.9 247.709 266.9 245.765 268.716C241.217 272.966 241.033 278.601 240.667 289.869C239.986 310.793 243.671 331.713 258.359 333.068ZM311.432 248.949H365.216C379.387 248.949 386.472 248.949 390.874 244.701C395.276 240.453 395.276 233.616 395.276 219.942V210.273C395.276 196.6 395.276 189.763 390.874 185.515C386.472 181.267 379.387 181.267 365.216 181.267H284.425C285.403 182.586 286.336 183.771 287.154 184.809C288.274 186.23 289.178 187.377 289.683 188.219C289.821 188.449 290.012 188.747 290.243 189.106C294.718 196.055 314.098 226.15 250.083 241.842L250.082 241.842L250.081 241.843C249.801 241.911 249.661 241.946 249.358 242.034C249.056 242.121 249.013 242.136 248.928 242.164C247.271 242.722 242.612 244.548 244.253 247.002C244.648 247.593 245.251 247.896 245.958 247.975C251.66 248.613 280.356 248.884 310.866 248.921C311.058 248.921 311.247 248.93 311.432 248.949ZM275.986 164.829C288.865 164.82 295.497 164.63 299.693 160.582C304.095 156.334 304.095 149.497 304.095 135.823V126.154C304.095 112.48 304.095 105.643 299.693 101.396C296.231 98.0556 291.112 97.3417 282.193 97.1891C285.068 100.131 287.859 102.507 290.3 104.584C299.269 112.218 303.495 115.815 289.683 128.621C275.096 142.145 273.339 154.673 275.986 164.829ZM270.332 80.7106H365.216H365.216C379.387 80.7106 386.472 80.7106 390.874 76.4626C395.276 72.2147 395.276 65.3778 395.276 51.7039V42.0351C395.276 28.3612 395.276 21.5243 390.874 17.2764C386.472 13.0284 379.387 13.0284 365.216 13.0284H260.007C257.489 13.0284 255.194 13.0284 253.098 13.0523C257.639 19.0337 260.406 25.2241 260.406 30.9273C260.406 53.9489 264.662 69.5998 270.332 80.7106ZM325.531 328.82C321.129 324.572 321.129 317.735 321.129 304.062V294.393C321.129 280.719 321.129 273.882 325.531 269.634C329.933 265.386 337.018 265.386 351.188 265.386H456.397C470.568 265.386 477.653 265.386 482.055 269.634C486.457 273.882 486.457 280.719 486.457 294.393V304.062C486.457 317.735 486.457 324.572 482.055 328.82C477.653 333.068 470.568 333.068 456.397 333.068H351.188C337.018 333.068 329.933 333.068 325.531 328.82ZM503.491 304.062C503.491 317.735 503.491 324.572 507.893 328.82C512.295 333.068 519.38 333.068 533.55 333.068H638.759C652.93 333.068 660.015 333.068 664.417 328.82C668.819 324.572 668.819 317.736 668.819 304.062V304.062V294.393V294.392C668.819 280.719 668.819 273.882 664.417 269.634C660.015 265.386 652.93 265.386 638.759 265.386H533.55C519.38 265.386 512.295 265.386 507.893 269.634C503.491 273.882 503.491 280.719 503.491 294.393V304.062ZM685.853 304.062V304.062V294.393V294.392C685.853 280.719 685.853 273.882 690.255 269.634C694.657 265.386 701.742 265.386 715.912 265.386H729.94C744.111 265.386 751.196 265.386 755.598 269.634C760 273.882 760 280.719 760 294.393V304.062C760 317.735 760 324.572 755.598 328.82C751.196 333.068 744.111 333.068 729.94 333.068H715.912C701.742 333.068 694.657 333.068 690.255 328.82C685.853 324.572 685.853 317.736 685.853 304.062ZM412.31 219.942C412.31 233.616 412.31 240.453 416.712 244.701C421.114 248.949 428.199 248.949 442.369 248.949H547.578C561.749 248.949 568.834 248.949 573.236 244.701C577.638 240.453 577.638 233.616 577.638 219.942V210.273C577.638 196.6 577.638 189.763 573.236 185.515C568.834 181.267 561.749 181.267 547.578 181.267H442.369C428.199 181.267 421.114 181.267 416.712 185.515C412.31 189.763 412.31 196.6 412.31 210.273V219.942ZM594.672 219.943V219.942V210.273V210.273C594.672 196.6 594.672 189.763 599.074 185.515C603.476 181.267 610.561 181.267 624.731 181.267H729.94C744.111 181.267 751.196 181.267 755.598 185.515C760 189.763 760 196.6 760 210.273V219.942C760 233.616 760 240.453 755.598 244.701C751.196 248.949 744.111 248.949 729.94 248.949H624.731C610.561 248.949 603.476 248.949 599.074 244.701C594.672 240.453 594.672 233.616 594.672 219.943ZM325.531 160.582C321.129 156.334 321.129 149.497 321.129 135.823V126.154C321.129 112.48 321.129 105.643 325.531 101.396C329.933 97.1476 337.018 97.1476 351.188 97.1476H351.188H456.397C470.568 97.1476 477.653 97.1476 482.055 101.396C486.457 105.643 486.457 112.48 486.457 126.154V135.823C486.457 149.497 486.457 156.334 482.055 160.582C477.653 164.83 470.568 164.83 456.397 164.83H351.188C337.018 164.83 329.933 164.83 325.531 160.582ZM503.491 135.823C503.491 149.497 503.491 156.334 507.893 160.582C512.295 164.83 519.38 164.83 533.55 164.83H638.759C652.93 164.83 660.015 164.83 664.417 160.582C668.819 156.334 668.819 149.497 668.819 135.823V135.823V126.154V126.154C668.819 112.48 668.819 105.643 664.417 101.396C660.015 97.1476 652.93 97.1476 638.759 97.1476H533.55C519.38 97.1476 512.295 97.1476 507.893 101.396C503.491 105.643 503.491 112.48 503.491 126.154V135.823ZM685.853 135.823V135.823V126.154V126.154C685.853 112.48 685.853 105.643 690.255 101.396C694.657 97.1476 701.742 97.1476 715.912 97.1476H729.94C744.111 97.1476 751.196 97.1476 755.598 101.396C760 105.643 760 112.48 760 126.154V135.823C760 149.497 760 156.334 755.598 160.582C751.196 164.83 744.111 164.83 729.94 164.83H715.912C701.742 164.83 694.657 164.83 690.255 160.582C685.853 156.334 685.853 149.497 685.853 135.823ZM412.31 51.7039C412.31 65.3778 412.31 72.2147 416.712 76.4626C421.114 80.7106 428.199 80.7106 442.369 80.7106H547.578C561.749 80.7106 568.834 80.7106 573.236 76.4626C577.638 72.2147 577.638 65.3778 577.638 51.7039V42.0351C577.638 28.3612 577.638 21.5243 573.236 17.2764C568.834 13.0284 561.749 13.0284 547.578 13.0284H442.369C428.199 13.0284 421.114 13.0284 416.712 17.2764C412.31 21.5243 412.31 28.3612 412.31 42.0351V51.7039ZM594.672 51.7042V51.7039V42.0351V42.0348C594.672 28.3611 594.672 21.5243 599.074 17.2764C603.476 13.0284 610.561 13.0284 624.731 13.0284H729.94C744.111 13.0284 751.196 13.0284 755.598 17.2764C760 21.5243 760 28.3612 760 42.0351V51.7039C760 65.3778 760 72.2147 755.598 76.4626C751.196 80.7106 744.111 80.7106 729.94 80.7106H624.731C610.561 80.7106 603.476 80.7106 599.074 76.4626C594.672 72.2148 594.672 65.3779 594.672 51.7042Z" fill="#BC5431"/>
<path d="M4.01025 170.631V309.642L4.01025 309.933C4.01013 316.757 4.01004 322.283 4.5951 326.634C5.20391 331.163 6.51145 335.014 9.57523 338.077C12.639 341.141 16.4899 342.449 21.0182 343.058C25.3697 343.643 30.8953 343.643 37.7191 343.642H38.0103H187.854H188.191C197.228 343.643 204.459 343.643 209.972 342.837C215.649 342.007 220.372 340.21 223.541 335.903C226.711 331.596 227.021 326.553 226.124 320.886C225.254 315.383 223.103 308.479 220.415 299.85L220.315 299.529L204.143 247.623C203.054 244.127 202.3 241.698 201.841 239.763C201.389 237.861 201.3 236.733 201.389 235.845C201.685 232.861 203.187 230.127 205.547 228.277C206.249 227.726 207.249 227.196 209.097 226.558C210.967 225.911 213.408 225.249 216.916 224.301C245.232 217.439 256.892 206.998 259.994 196.144C262.893 186.005 257.643 177.373 256.266 175.11C256.209 175.015 256.158 174.932 256.115 174.86C255.57 173.95 254.71 172.858 253.926 171.862L253.866 171.786L253.759 171.65C252.912 170.573 251.97 169.377 250.998 168.022C248.968 165.194 246.93 161.838 245.71 158.077C244.505 154.363 244.105 150.279 245.31 145.87C246.519 141.445 249.435 136.365 255.404 130.826C258.695 127.773 261.1 125.053 262.505 122.464C263.999 119.711 264.465 116.89 263.492 114.06C262.623 111.535 260.767 109.546 259.037 107.929C258.107 107.061 256.89 106.021 255.645 104.957C254.71 104.159 253.759 103.346 252.901 102.582C248.526 98.6835 243.538 93.5084 239.595 85.1434C235.64 76.7515 232.622 64.899 232.622 47.5366C232.622 42.1254 230.26 36.7152 226.847 31.8468C223.399 26.9293 218.652 22.2354 213.317 18.1721C202.764 10.1348 189.142 4 177.492 4H47.6617H38.0103L37.7197 4C30.8956 3.99988 25.3698 3.99979 21.0182 4.58484C16.4899 5.19365 12.639 6.5012 9.57523 9.56497C6.51145 12.6287 5.20391 16.4797 4.5951 21.0079C4.01004 25.3595 4.01013 30.8854 4.01025 37.7095L4.01025 38V170.631Z" fill="#BC5431" stroke="#BC5431" stroke-width="8"/>
<path d="M55.599 395.068L57.29 391.33C62.3333 391.449 66.546 392.25 69.928 393.733C73.31 395.157 75.8317 397.145 77.493 399.696C79.1543 402.248 79.985 405.244 79.985 408.685C79.985 412.305 79.1543 415.568 77.493 418.475C75.891 421.323 73.4287 423.578 70.106 425.239C66.7833 426.841 62.6597 427.642 57.735 427.642H6.916L11.989 393.377L6.916 360.892H55.866C62.0367 360.892 66.8427 362.346 70.284 365.253C73.7847 368.101 75.535 372.077 75.535 377.179C75.535 380.027 74.8823 382.727 73.577 385.278C72.331 387.83 70.2247 389.995 67.258 391.775C64.3507 393.496 60.4643 394.594 55.599 395.068ZM27.208 423.014L19.287 413.58H51.594C53.908 413.58 55.7177 413.017 57.023 411.889C58.3283 410.703 58.981 409.071 58.981 406.994C58.981 405.036 58.2987 403.434 56.934 402.188C55.5693 400.883 53.5817 400.23 50.971 400.23H24.093V386.524H48.034C49.8733 386.524 51.416 385.961 52.662 384.833C53.908 383.706 54.531 382.223 54.531 380.383C54.531 378.841 53.9673 377.565 52.84 376.556C51.772 375.488 50.2293 374.954 48.212 374.954H19.376L27.208 365.52L31.747 393.377L27.208 423.014ZM108.245 397.382C108.245 400.171 108.75 402.544 109.758 404.502C110.767 406.46 112.28 408.003 114.297 409.13C116.315 410.198 118.836 410.732 121.862 410.732C125.007 410.732 127.588 410.198 129.605 409.13C131.623 408.062 133.106 406.549 134.055 404.591C135.064 402.574 135.568 400.171 135.568 397.382V360.892H156.305V398.539C156.305 404.651 154.881 410.02 152.033 414.648C149.185 419.217 145.18 422.777 140.018 425.328C134.856 427.88 128.804 429.155 121.862 429.155C115.039 429.155 109.046 427.88 103.884 425.328C98.7223 422.777 94.6876 419.217 91.7803 414.648C88.9323 410.02 87.5083 404.651 87.5083 398.539V360.892H108.245V397.382ZM167.056 360.892H187.793V427.642H167.056V360.892ZM220.038 360.892V418.475L210.693 409.219H260.444V427.642H199.301V360.892H220.038ZM302.404 360.892C310.414 360.892 317.415 362.287 323.408 365.075C329.46 367.805 334.147 371.661 337.47 376.645C340.852 381.629 342.543 387.503 342.543 394.267C342.543 400.972 340.852 406.846 337.47 411.889C334.147 416.873 329.46 420.76 323.408 423.548C317.415 426.278 310.414 427.642 302.404 427.642H268.05V360.892H302.404ZM288.609 418.653L279.086 409.219H304.006C307.625 409.219 310.74 408.626 313.351 407.439C316.021 406.193 318.068 404.443 319.492 402.188C320.916 399.934 321.628 397.293 321.628 394.267C321.628 391.182 320.916 388.542 319.492 386.346C318.068 384.092 316.021 382.371 313.351 381.184C310.74 379.938 307.625 379.315 304.006 379.315H279.086L288.609 369.881V418.653ZM370.287 405.748H391.291C391.528 407.291 392.27 408.656 393.516 409.842C394.821 410.97 396.572 411.86 398.767 412.512C400.962 413.106 403.543 413.402 406.51 413.402C410.604 413.402 413.778 412.928 416.033 411.978C418.347 411.029 419.504 409.575 419.504 407.617C419.504 406.253 418.851 405.155 417.546 404.324C416.241 403.434 413.66 402.841 409.803 402.544L398.055 401.565C388.443 400.853 381.471 398.777 377.14 395.335C372.868 391.835 370.732 387.147 370.732 381.273C370.732 376.467 372.126 372.462 374.915 369.258C377.704 365.995 381.59 363.533 386.574 361.871C391.558 360.21 397.432 359.379 404.196 359.379C410.723 359.379 416.508 360.299 421.551 362.138C426.654 363.978 430.688 366.588 433.655 369.97C436.681 373.293 438.342 377.179 438.639 381.629H417.635C417.398 380.324 416.715 379.197 415.588 378.247C414.52 377.239 412.977 376.467 410.96 375.933C408.943 375.399 406.54 375.132 403.751 375.132C400.072 375.132 397.135 375.577 394.94 376.467C392.804 377.357 391.736 378.692 391.736 380.472C391.736 381.778 392.359 382.846 393.605 383.676C394.91 384.507 397.284 385.071 400.725 385.367L413.63 386.435C420.038 386.91 425.2 387.919 429.116 389.461C433.091 390.945 435.969 392.992 437.749 395.602C439.529 398.154 440.419 401.387 440.419 405.303C440.419 410.05 438.995 414.233 436.147 417.852C433.299 421.412 429.294 424.201 424.132 426.218C419.029 428.176 413.037 429.155 406.154 429.155C399.093 429.155 392.893 428.176 387.553 426.218C382.213 424.26 378.03 421.531 375.004 418.03C371.978 414.47 370.406 410.376 370.287 405.748ZM467.656 369.881H488.393V427.642H467.656V369.881ZM442.914 360.892H513.135V379.315H442.914V360.892ZM555.568 429.155C547.558 429.155 540.527 427.702 534.475 424.794C528.483 421.887 523.795 417.823 520.413 412.601C517.091 407.38 515.429 401.269 515.429 394.267C515.429 387.266 517.091 381.155 520.413 375.933C523.795 370.712 528.483 366.648 534.475 363.74C540.527 360.833 547.558 359.379 555.568 359.379C563.578 359.379 570.58 360.833 576.572 363.74C582.624 366.648 587.312 370.712 590.634 375.933C594.016 381.155 595.707 387.266 595.707 394.267C595.707 401.269 594.016 407.38 590.634 412.601C587.312 417.823 582.624 421.887 576.572 424.794C570.58 427.702 563.578 429.155 555.568 429.155ZM555.568 410.732C559.544 410.732 562.955 410.08 565.803 408.774C568.711 407.41 570.936 405.511 572.478 403.078C574.021 400.586 574.792 397.649 574.792 394.267C574.792 390.885 574.021 387.978 572.478 385.545C570.936 383.053 568.711 381.155 565.803 379.849C562.955 378.485 559.544 377.802 555.568 377.802C551.593 377.802 548.152 378.485 545.244 379.849C542.396 381.155 540.201 383.053 538.658 385.545C537.116 387.978 536.344 390.885 536.344 394.267C536.344 397.649 537.116 400.586 538.658 403.078C540.201 405.511 542.396 407.41 545.244 408.774C548.152 410.08 551.593 410.732 555.568 410.732ZM666.349 412.868L660.386 414.114V360.892H680.5V427.642H654.512L618.645 374.42L624.519 373.174V427.642H604.494V360.892H631.283L666.349 412.868ZM750.311 386.969V401.565H700.738V386.969H750.311ZM714.889 394.267L710.706 420.077L702.607 411.088H753.426V427.642H690.147L695.131 394.267L690.147 360.892H752.981V377.446H702.607L710.706 368.457L714.889 394.267Z" fill="#BC5431"/>
</svg>
